<?xml version="1.0" encoding="UTF-8"?>
<svg width="20px" height="20px" viewBox="0 0 20 20" version="1.1" xmlns="http://www.w3.org/2000/svg" xmlns:xlink="http://www.w3.org/1999/xlink">
    <!-- Generator: Sketch 53.2 (72643) - https://sketchapp.com -->
    <title>Link_icon@3x</title>
    <desc>Created with Sketch.</desc>
    <g id="User-Moderation" stroke="none" stroke-width="1" fill="none" fill-rule="evenodd">
        <g id="Desktop---Admin---UserIDTaken1-Copy-2" transform="translate(-174.000000, -772.000000)" fill="#0E80C4" stroke="#FFFFFF" stroke-width="0.75">
            <g id="Link_icon" transform="translate(183.669874, 782.398370) rotate(44.000000) translate(-183.669874, -782.398370) translate(179.169874, 770.898370)">
                <path d="M4.5,7.77 C3.88235294,7.77 3.37941176,8.26818898 3.37941176,8.88 C3.37941176,9.49181102 3.88235294,9.99 4.5,9.99 C5.73529412,9.99 6.74117647,10.986378 6.74117647,12.21 L6.74117647,17.76 C6.74117647,18.983622 5.73529412,19.98 4.5,19.98 C3.26470588,19.98 2.25882353,18.983622 2.25882353,17.76 L2.25882353,16.65 C2.25882353,16.038189 1.75588235,15.54 1.13823529,15.54 C0.520588235,15.54 0.0176470588,16.038189 0.0176470588,16.65 L0.0176470588,17.76 C0.0176470588,20.2072441 2.02941176,22.2 4.5,22.2 C6.97058824,22.2 8.98235294,20.2072441 8.98235294,17.76 L8.98235294,12.21 C8.98235294,9.76275591 6.97058824,7.77 4.5,7.77 Z" id="Path"></path>
                <path d="M4.5,0 C2.02941176,0 0.0176470588,1.99275591 0.0176470588,4.44 L0.0176470588,9.99 C0.0176470588,12.4372441 2.02941176,14.43 4.5,14.43 C5.11764706,14.43 5.62058824,13.931811 5.62058824,13.32 C5.62058824,12.708189 5.11764706,12.21 4.5,12.21 C3.26470588,12.21 2.25882353,11.213622 2.25882353,9.99 L2.25882353,4.44 C2.25882353,3.21637795 3.26470588,2.22 4.5,2.22 C5.73529412,2.22 6.74117647,3.21637795 6.74117647,4.44 L6.74117647,5.55 C6.74117647,6.16181102 7.24411765,6.66 7.86176471,6.66 C8.47941176,6.66 8.98235294,6.16181102 8.98235294,5.55 L8.98235294,4.44 C8.98235294,1.99275591 6.97058824,0 4.5,0 Z" id="Path"></path>
            </g>
        </g>
    </g>
</svg>