<?xml version="1.0" encoding="UTF-8"?>
<svg width="25px" height="22px" viewBox="0 0 25 22" version="1.1" xmlns="http://www.w3.org/2000/svg" xmlns:xlink="http://www.w3.org/1999/xlink">
    <!-- Generator: Sketch 53.2 (72643) - https://sketchapp.com -->
    <title>Unlink_icon@3x</title>
    <desc>Created with Sketch.</desc>
    <g id="User-Moderation" stroke="none" stroke-width="1" fill="none" fill-rule="evenodd">
        <g id="Desktop---Admin---UserIDTaken1-Copy-2" transform="translate(-253.000000, -663.000000)" fill="#0E80C4" stroke="#FFFFFF">
            <g id="Group-2" transform="translate(249.000000, 658.000000)">
                <g id="Unlink_icon" transform="translate(0.524632, 0.989338)">
                    <g id="noun_link_764827_000000-copy" transform="translate(15.876294, 16.000000) rotate(44.000000) translate(-15.876294, -16.000000) translate(7.376294, 2.000000)" stroke-width="0.75">
                        <path d="M6.5,12.77 C5.88235294,12.77 5.37941176,13.268189 5.37941176,13.88 C5.37941176,14.491811 5.88235294,14.99 6.5,14.99 C7.73529412,14.99 8.74117647,15.986378 8.74117647,17.21 L8.74117647,22.76 C8.74117647,23.983622 7.73529412,24.98 6.5,24.98 C5.26470588,24.98 4.25882353,23.983622 4.25882353,22.76 L4.32969049,17.4060532 C4.32969049,16.7942422 3.82674931,16.2960532 3.20910225,16.2960532 C2.59145519,16.2960532 2.08851401,16.7942422 2.08851401,17.4060532 L2.01764706,22.76 C2.01764706,25.2072441 4.02941176,27.2 6.5,27.2 C8.97058824,27.2 10.9823529,25.2072441 10.9823529,22.76 L10.9823529,17.21 C10.9823529,14.7627559 8.97058824,12.77 6.5,12.77 Z" id="Path"></path>
                        <path d="M8.73458744,-0.0572933805 C6.2639992,-0.0572933805 4.2522345,1.93546253 4.2522345,4.38270662 L4.2522345,9.93270662 C4.2522345,12.3799507 6.2639992,14.3727066 8.73458744,14.3727066 C9.3522345,14.3727066 9.85517567,13.8745176 9.85517567,13.2627066 C9.85517567,12.6508956 9.3522345,12.1527066 8.73458744,12.1527066 C7.49929332,12.1527066 6.49341097,11.1563287 6.49341097,9.93270662 L6.49341097,4.38270662 C6.49341097,3.15908457 7.49929332,2.16270662 8.73458744,2.16270662 C9.96988156,2.16270662 10.9757639,3.15908457 10.9757639,4.38270662 L10.9757639,5.49270662 C10.9757639,6.10451764 11.4787051,6.60270662 12.0963521,6.60270662 C12.7139992,6.60270662 13.2169404,6.10451764 13.2169404,5.49270662 L13.2169404,4.38270662 C13.2169404,1.93546253 11.2051757,-0.0572933805 8.73458744,-0.0572933805 Z" id="Path" transform="translate(8.734587, 7.157707) rotate(73.000000) translate(-8.734587, -7.157707) "></path>
                    </g>
                    <polygon id="Shape" stroke-width="1.761905" fill-rule="nonzero" points="6.47536779 5.14719266 6.47536779 11.1471927 9.47536779 11.1471927 9.47536779 8.14719266 12.4753678 8.14719266 12.4753678 5.14719266"></polygon>
                </g>
            </g>
        </g>
    </g>
</svg>